<svg viewBox="200 200 554 428" xmlns:xlink="http://www.w3.org/1999/xlink" xmlns="http://www.w3.org/2000/svg" id="Layer_1" style="max-height: 500px" width="554" height="428"><defs><linearGradient gradientUnits="userSpaceOnUse" y2="359.21" x2="356.62" y1="359.21" x1="202.5" id="linear-gradient"><stop stop-color="#622c8a" offset="0"/><stop stop-color="#532076" offset=".4"/><stop stop-color="#5a2468" offset="1"/></linearGradient><linearGradient gradientUnits="userSpaceOnUse" y2="443.55" x2="746.02" y1="443.55" x1="342.01" id="linear-gradient-2"><stop stop-color="#571658" offset="0"/><stop stop-color="#5a3067" offset=".42"/><stop stop-color="#5a2468" offset="1"/></linearGradient></defs><path stroke-width="0" fill="#571658" d="M339.2,452l3.32,5.79c-2.66,2.69-5.32,5.39-7.98,8.08-2.37,4.36-4.73,8.72-7.1,13.09-1.16,3.95-2.67,11.01-1.39,19.66.59,3.97,1.93,9.41,5.11,15.18,4.09,7.44,9.35,12.06,12.57,14.47l1.14,1.32,12.45.88,31.71,3.47-3.08-8.86c.83-.59,1.74-1.34,2.63-2.28,2.42-2.54,3.6-5.28,4.21-7.11.54-1.8,1.08-3.6,1.62-5.4l100.56,10.13-155.76-68.4Z"/><polyline stroke-width="0" fill="#571658" points="738.81 478.88 738.81 484.68 722.25 478.88 710.82 473.79 708.83 473.79 720.68 486.11 726.44 488.88 745.32 494.73"/><path stroke-width="0" fill="#571658" d="M638.78,480.51c-16.33,0-29.57,13.24-29.57,29.57s13.24,29.57,29.57,29.57,29.57-13.24,29.57-29.57-13.24-29.57-29.57-29.57ZM638.78,530.78c-11.41,0-20.7-9.29-20.7-20.7s9.29-20.7,20.7-20.7,20.7,9.29,20.7,20.7-9.29,20.7-20.7,20.7Z"/><circle stroke-width="0" fill="#571658" r="17.74" cy="510.08" cx="638.78"/><rect stroke-width="0" fill="#fff" transform="translate(-169.46 387.73) rotate(-30)" height="5.91" width="35.48" y="507.13" x="621.04"/><rect stroke-width="0" fill="#fff" transform="translate(-122.35 808.24) rotate(-60)" height="35.48" width="5.91" y="492.34" x="635.82"/><rect stroke-width="0" fill="#fff" height="35.48" width="5.91" y="492.34" x="635.82"/><path stroke-width="0" fill="#571658" d="M638.78,505.94c-1.96,0-3.55,1.59-3.55,3.55s1.59,3.55,3.55,3.55,3.55-1.59,3.55-3.55-1.59-3.55-3.55-3.55ZM638.78,511.26c-.98,0-1.77-.8-1.77-1.77s.8-1.77,1.77-1.77,1.77.8,1.77,1.77-.8,1.77-1.77,1.77Z"/><circle stroke-width="0" fill="#571658" r="1.18" cy="509.49" cx="638.78"/><path stroke-width="0" fill="#571658" d="M359.12,466.96c-16.33,0-29.57,13.24-29.57,29.57s13.24,29.57,29.57,29.57,29.57-13.24,29.57-29.57-13.24-29.57-29.57-29.57ZM359.12,517.23c-11.41,0-20.7-9.29-20.7-20.7s9.29-20.7,20.7-20.7,20.7,9.29,20.7,20.7-9.29,20.7-20.7,20.7Z"/><circle stroke-miterlimit="10" stroke="#fff" fill="#571658" r="17.74" cy="496.53" cx="359.12"/><rect stroke-width="0" fill="#f5f3f6" transform="translate(-200.15 246.08) rotate(-30)" height="5.91" width="35.48" y="493.57" x="341.38"/><rect stroke-width="0" fill="#f5f3f6" transform="translate(-250.45 559.27) rotate(-60)" height="35.48" width="5.91" y="478.79" x="356.16"/><rect stroke-width="0" fill="#f5f3f6" height="35.48" width="5.91" y="478.79" x="356.16"/><path stroke-width="0" fill="#571658" d="M359.12,492.39c-1.96,0-3.55,1.59-3.55,3.55s1.59,3.55,3.55,3.55,3.55-1.59,3.55-3.55-1.59-3.55-3.55-3.55ZM359.12,497.71c-.98,0-1.77-.8-1.77-1.77s.8-1.77,1.77-1.77,1.77.8,1.77,1.77-.8,1.77-1.77,1.77Z"/><circle stroke-width="0" fill="#571658" r="1.18" cy="495.94" cx="359.12"/><path stroke-width="0" fill="url(#linear-gradient)" d="M206.32,272.35c-.27.23-4.59,4.08-3.7,9.86.62,4,3.48,7.34,7.39,8.62,29.16.41,58.31.82,87.47,1.23,13.55,51.33,27.1,102.67,40.66,154,.34-.25.69-.5,1.03-.76,5.82-4.27,11.63-8.53,17.45-12.8-1.56-5.39-3.72-13.01-6.16-22.18-3.55-13.32-5.98-23.43-8.62-34.5-2-8.35-4.54-19.21-7.39-32.03-4.93-18.48-9.86-36.96-14.78-55.44-2.49-4.45-7.09-10.88-14.78-13.55-3.43-1.19-6.23-1.2-8.62-1.23-9.45-.12-18.88-1.29-28.34-1.23-14.37.08-28.75-.03-43.12,0-8.03.02-14.53,0-18.48,0Z"/><path stroke-width="0" fill="#571658" d="M356.62,432.51c2.4,4.56,5.06,9.3,8.01,14.17,2.64,4.37,5.3,8.49,7.92,12.36-11.47-4.33-22.94-8.65-34.41-12.98"/><polygon stroke-width="0" fill="#571658" points="325.21 316.09 526.91 328.27 622.12 338.27 327.9 338.27 325.21 316.09"/><path stroke-width="0" fill="#571658" d="M377.16,338.27l5.95,32.03-5.95-32.03Z"/><path stroke-width="0" fill="#571658" d="M380.14,338.27l8.03,32.03c56.61,2.26,84.9,3.91,84.88,4.93-.02.97-25.48,1.38-76.38,1.23l-13.55-1.02-44.97,1.02,2.38-6.16h42.59c-2.46-11.91-4.93-23.82-7.39-35.73"/><path stroke-width="0" fill="url(#linear-gradient-2)" d="M609.86,415.79c-3.84-2.88-7.87-5.79-12.11-8.71-5.12-3.52-10.13-6.77-15-9.77-3.1-1.7-7.53-4.07-12.97-6.73-6-2.94-9.16-4.52-13.55-6.16-5.95-2.22-10.5-3.28-17.25-4.93-6.53-1.59-12.72-2.79-18.48-3.7-6.57-.41-13.14-.82-19.71-1.23h-31.42l-20.33,1.23-25.01,1.23h-38.59l9.38,6.16,2.46,1.23-18.48,1.97-36.82,8.35c26.24,2.31,52.47,4.62,78.71,6.94,5.36-3.07,8.04-4.6,8.62-4.93,3.26-1.83,9.12-5.11,14.78-7.39,7.5-3.02,13.5-3.8,22.18-4.93,2.27-.3,9.65-1.18,19.71-1.23,4.94-.03,15.82.14,29.57,2.46,6.9,1.17,18.18,3.14,32.03,8.62,9.33,3.7,16.79,7.78,22.18,11.09,5.83,3.12,12.7,7.49,19.71,13.55,4.38,3.79,8.05,7.57,11.09,11.09,1.64,3.29,3.29,6.57,4.93,9.86,12.73,1.23,25.46,2.46,38.19,3.7,11.51,2.09,23.44,4.54,35.73,7.39,8.46,1.97,16.68,4.03,24.64,6.16,3.55,1.3,7.82,3.23,12.32,6.16,6.96,4.53,11.74,9.67,14.78,13.55,1.24,4.1,2.47,8.2,3.7,12.32.83,2.77,1.65,5.53,2.46,8.29v5.27l-3.7,9.86h2.46c1.23-1.51,2.46-3.02,3.7-4.53,1.23-1.77,2.46-3.55,3.7-5.32,1.08-2.43,2.2-5.78,2.46-9.86.09-1.32.07-2.56,0-3.7-.57-4.26-1.6-7.58-2.46-9.86-1.01-2.65-2.17-4.92-3.4-7.29-1.31-2.54-1.96-3.81-2.76-5.03-.78-1.19-2.8-4-9.86-8.62-4.81-3.15-8.93-5.16-11.09-6.16-6.5-3.01-11.73-4.56-17.25-6.16-5.85-1.7-10.41-2.73-14.78-3.7-4.93-1.09-9.14-1.9-12.32-2.46-12.01-2.14-13.12-2.27-19.71-3.7-5.33-1.16-9.36-2.2-12.91-3.13-6.85-1.79-12.68-3.51-17.25-4.93"/><polyline stroke-width="0" fill="#571658" points="420.07 366.6 421.92 387.49 425 365.37"/><path stroke-width="0" fill="#571658" d="M609.21,439.86c-.03.41-8.91.34-41.89-1.23-1.53-.39-3.31-1.09-3.7-2.46-.07-.26-.04-.34,0-1.23v-6.16c1.14-.39,2.83-.89,4.93-1.23,2.68-.44,4.04-.68,4.93,0,1.25.95.78,2.56,2.46,4.93.61.86,1.25,1.46,1.7,1.85,7.88,1.85,13.26,2.67,16.78,3.08.37.04,3.91.45,8.62,1.23,3.88.64,6.17,1.02,6.16,1.23Z"/><path stroke-width="0" fill="#571658" d="M409.63,449.71c2.88.57,6.18,1.04,9.86,1.23,2.66.14,5.14.12,7.39,0,1,1.56,1.86,2.82,2.46,3.7,2.05,2.96,5.17,7.43,9.86,12.32,1.03,1.08,1.9,1.93,2.46,2.46,48.1,2.53,74.53,4.02,89.94,4.93,6.58.39,10.91.65,20.94,1.23,34.2,1.98,46.82,4.72,46.82,4.93,0,.4-33.31-2.11-165.73-4.26-8-8.85-16-17.69-23.99-26.54Z"/><path stroke-width="0" fill="#571658" d="M424.22,354.28l-1.68-16.02-3.7-1.23,1.23,29.57,4.93-1.23v-1.23,1.23-7.39c-1.48-6.98-2.95-13.96-4.43-20.94"/><polyline stroke-width="0" fill="#571658" points="448.76 334.57 452.13 375.61 456.7 375.33 452.73 334.57 439.12 327.18"/><path stroke-width="0" fill="#571960" d="M371.88,617.98h-9.66v-17.41h-17.7v17.41h-9.63v-42.74h9.63v17.05h17.7v-17.05h9.66v42.74Z"/><path stroke-width="0" fill="#571960" d="M433.33,599.47c0,12.84-5.98,19.25-17.94,19.25s-17.41-6.27-17.41-18.81v-24.68h9.66v24.8c0,6.91,2.7,10.37,8.11,10.37s7.96-3.34,7.96-10.01v-25.16h9.63v24.23Z"/><path stroke-width="0" fill="#571960" d="M484.93,617.98h-25.45v-42.74h9.63v34.93h15.83v7.81Z"/><path stroke-width="0" fill="#571960" d="M542.36,599.47c0,12.84-5.98,19.25-17.94,19.25s-17.41-6.27-17.41-18.81v-24.68h9.66v24.8c0,6.91,2.7,10.37,8.11,10.37s7.96-3.34,7.96-10.01v-25.16h9.63v24.23Z"/><path stroke-width="0" fill="#571960" d="M599.14,616.46c-3.12,1.51-7.19,2.27-12.22,2.27-6.56,0-11.71-1.93-15.47-5.78-3.76-3.85-5.63-8.99-5.63-15.41,0-6.83,2.11-12.38,6.33-16.63,4.22-4.25,9.7-6.38,16.44-6.38,4.17,0,7.69.53,10.55,1.58v9.27c-2.86-1.71-6.12-2.56-9.78-2.56-4.01,0-7.25,1.26-9.72,3.79s-3.7,5.94-3.7,10.25,1.16,7.43,3.49,9.88c2.33,2.45,5.46,3.68,9.39,3.68s7.19-.91,10.31-2.74v8.79Z"/><path stroke-width="0" fill="#571960" d="M661.02,617.98h-10.49l-3.04-9.51h-15.2l-3.01,9.51h-10.43l15.56-42.74h11.42l15.2,42.74ZM645.28,601.08l-4.59-14.37c-.34-1.07-.58-2.35-.72-3.84h-.24c-.1,1.25-.35,2.49-.75,3.73l-4.65,14.49h10.94Z"/><path stroke-width="0" fill="#571960" d="M719.05,617.98h-11.06l-6.65-11c-.5-.83-.97-1.58-1.43-2.24-.46-.66-.92-1.22-1.39-1.68-.47-.47-.95-.82-1.46-1.07s-1.06-.37-1.65-.37h-2.59v16.36h-9.63v-42.74h15.26c10.37,0,15.56,3.87,15.56,11.62,0,1.49-.23,2.87-.69,4.13-.46,1.26-1.1,2.4-1.94,3.41-.83,1.01-1.84,1.89-3.03,2.62-1.18.74-2.5,1.31-3.95,1.73v.12c.64.2,1.25.52,1.85.97.6.45,1.17.97,1.73,1.57.56.6,1.09,1.24,1.59,1.92s.97,1.36,1.39,2.01l8.08,12.64ZM692.82,582.45v11.89h4.17c2.07,0,3.73-.6,4.98-1.79,1.27-1.21,1.91-2.71,1.91-4.5,0-3.74-2.24-5.6-6.71-5.6h-4.35Z"/></svg>